# xmcd
#
# Track frame offsets:
#	150
#	40484
#	61521
#	66818
#	98810
#	110783
#	129096
#	160655
#
# Disc length: 2254 seconds
#
# Revision: 0
# Processed by: cddbd v1.5.2PL0 Copyright (c) Steve Scherf et al.
# Submitted via: EZCDAudioConverter 2.1.7.1
#
DISCID=6108cc08
DTITLE=Greg Foat Group - Cityscapes/Landscapes
DYEAR=1900
DGENRE=
TTITLE0=Ingen Reklam (Tack)
TTITLE1=Pluribus
TTITLE2=View From The Hill
TTITLE3=Solaris (Part 1 and 2)
TTITLE4=Dawn
TTITLE5=Paper Kites
TTITLE6=Landscapes
TTITLE7=Dusk
EXTD=
EXTT0=
EXTT1=
EXTT2=
EXTT3=
EXTT4=
EXTT5=
EXTT6=
EXTT7=
PLAYORDER=
